<?xml version="1.0" encoding="utf-8"?>
<!-- Generator: Adobe Illustrator 21.1.0, SVG Export Plug-In . SVG Version: 6.00 Build 0)  -->
<svg version="1.1" id="Layer_1" xmlns="http://www.w3.org/2000/svg" xmlns:xlink="http://www.w3.org/1999/xlink" x="0px" y="0px"
	 viewBox="0 0 16 16" style="enable-background:new 0 0 16 16;" xml:space="preserve">
<style type="text/css">
	.st0{fill:#00BCD4;}
	.st1{fill:#EB3D00;}
	.st2{fill:#0A7BFF;}
	.st3{fill:#86C351;}
	.st4{fill:#9032E9;}
</style>
<g>
	<path class="st0" d="M5.7,12.7c-0.1-0.4-0.4-0.6-0.8-0.6L3.7,8.2L3.3,8.3c-0.8,0.2-1.6-0.2-1.9-1C1.3,6.8,1.4,6.4,1.6,6.1
		c0.2-0.4,0.5-0.6,0.9-0.7c0.3-0.1,0.6-0.1,0.9,0l0.2-0.7c-0.4-0.1-0.9-0.1-1.3,0c-0.6,0.2-1,0.6-1.3,1.1S0.6,6.9,0.7,7.5
		c0.2,0.6,0.6,1.1,1.1,1.4c0.4,0.2,0.9,0.3,1.3,0.2l1,3.3C4,12.6,3.9,12.9,4,13.3c0.2,0.5,0.7,0.7,1.1,0.6
		C5.6,13.7,5.8,13.1,5.7,12.7z"/>
	<path class="st1" d="M3.3,7.5c0.3-0.2,0.4-0.6,0.3-1l3.2-2.4L6.7,3.8C6.2,3.1,6.4,2.2,7.1,1.7c0.3-0.2,0.7-0.3,1.1-0.3
		c0.4,0.1,0.7,0.3,1,0.6c0.2,0.3,0.3,0.5,0.3,0.9l0.7,0c0-0.5-0.1-0.9-0.4-1.3C9.4,1.1,8.9,0.8,8.3,0.7s-1.2,0-1.7,0.4
		C6.1,1.4,5.8,1.9,5.7,2.6C5.6,3,5.7,3.5,5.9,4L3.2,6C2.9,5.8,2.6,5.8,2.3,6C1.9,6.3,1.8,6.9,2.1,7.3C2.4,7.7,3,7.8,3.3,7.5z"/>
	<path class="st2" d="M7.5,3.8c0.3,0.2,0.7,0.2,1,0l3.2,2.4l0.2-0.3c0.5-0.7,1.4-0.8,2.1-0.3c0.3,0.2,0.5,0.6,0.6,1
		c0.1,0.4,0,0.8-0.3,1.1c-0.2,0.2-0.4,0.4-0.7,0.5L13.8,9c0.4-0.1,0.8-0.4,1.1-0.8c0.4-0.5,0.5-1.1,0.4-1.7S15,5.4,14.5,5
		c-0.5-0.4-1.1-0.5-1.7-0.4c-0.5,0.1-0.9,0.3-1.2,0.6l-2.7-2c0.1-0.3-0.1-0.7-0.4-0.9C8.1,2,7.6,2.1,7.3,2.5C7,2.9,7.1,3.5,7.5,3.8z
		"/>
	<path class="st3" d="M12.3,6.6c-0.1,0.4,0,0.8,0.3,1l-1.3,3.9l0.3,0.1c0.8,0.3,1.2,1.2,0.9,2c-0.1,0.4-0.4,0.7-0.8,0.9
		c-0.4,0.2-0.8,0.2-1.1,0.1c-0.3-0.1-0.5-0.3-0.7-0.5l-0.6,0.5c0.3,0.4,0.6,0.6,1.1,0.8c0.6,0.2,1.2,0.2,1.7-0.1
		c0.5-0.3,0.9-0.7,1.1-1.3c0.2-0.6,0.2-1.2-0.1-1.8c-0.2-0.4-0.5-0.8-0.9-1l1-3.2c0.3,0,0.6-0.3,0.7-0.6c0.1-0.5-0.1-1-0.6-1.1
		C13,5.9,12.5,6.1,12.3,6.6z"/>
	<path class="st4" d="M11.1,12.1c-0.4,0-0.7,0.3-0.8,0.6l-4,0l0,0.4c0,0.8-0.7,1.5-1.5,1.5c-0.4,0-0.8-0.2-1-0.5S3.3,13.4,3.3,13
		c0-0.3,0.1-0.6,0.3-0.9L3,11.7c-0.3,0.4-0.4,0.8-0.4,1.3c0,0.6,0.2,1.2,0.6,1.6c0.4,0.4,1,0.7,1.6,0.7c0.6,0,1.2-0.2,1.6-0.6
		c0.3-0.3,0.6-0.8,0.7-1.2l3.3,0c0.1,0.3,0.4,0.5,0.8,0.5c0.5,0,0.9-0.4,0.9-0.9C12,12.5,11.6,12.1,11.1,12.1z"/>
</g>
</svg>
