<?xml version="1.0" encoding="utf-8"?>
<!-- Generator: Adobe Illustrator 21.1.0, SVG Export Plug-In . SVG Version: 6.00 Build 0)  -->
<svg version="1.1" id="Layer_1" xmlns="http://www.w3.org/2000/svg" xmlns:xlink="http://www.w3.org/1999/xlink" x="0px" y="0px"
	 viewBox="0 0 16 16" style="enable-background:new 0 0 16 16;" xml:space="preserve">
<style type="text/css">
	.st0{fill:#424242;}
	.st1{fill:none;}
</style>
<g id="Layer_x0020_1">
	<path class="st0" d="M10.7,2.3c-0.1,0.4-0.4,0.8-0.6,1.1v0C9.9,3.7,9.5,4,9.1,4.2C8.7,4.4,8.3,4.5,8,4.4l-0.1,0l0-0.1
		c-0.1-0.4,0-0.8,0.1-1.1c0.1-0.4,0.4-0.8,0.6-1.1l0,0c0.3-0.3,0.6-0.6,1-0.8C9.9,1.1,10.3,1,10.7,1l0.1,0l0,0.1
		C10.9,1.5,10.9,1.9,10.7,2.3L10.7,2.3z"/>
	<path class="st0" d="M13.3,5.9c-0.1,0.1-1.4,0.9-1.4,2.5c0,1.9,1.7,2.6,1.7,2.6h0l0,0l0.1,0.1l0,0.1c0,0,0,0,0,0c0,0.1-0.3,1-1,2
		c-0.3,0.4-0.6,0.8-0.9,1.2C11.5,14.8,11,15,10.5,15c-0.5,0-0.8-0.1-1.1-0.3c-0.3-0.1-0.6-0.3-1.1-0.3c-0.5,0-0.9,0.1-1.2,0.3
		C6.7,14.9,6.4,15,6,15h0c-0.5,0-0.9-0.2-1.3-0.6c-0.4-0.3-0.7-0.8-1-1.2c-0.7-1-1.2-2.3-1.4-3.8c-0.1-1.2,0-2.3,0.5-3.3
		c0.3-0.5,0.8-1,1.3-1.3c0.5-0.3,1.1-0.5,1.7-0.5v0c0.5,0,1,0.2,1.5,0.4c0.3,0.1,0.6,0.2,0.8,0.2c0.2,0,0.5-0.1,0.8-0.2
		c0.5-0.2,1.2-0.5,1.9-0.4c0.3,0,0.9,0.1,1.5,0.4c0.4,0.2,0.8,0.5,1.1,1l0.1,0.1L13.3,5.9C13.3,5.9,13.3,5.9,13.3,5.9L13.3,5.9z"/>
</g>
<rect x="-1016" y="-1016" class="st1" width="2048" height="2048"/>
</svg>
